<svg version="1.1" id="Layer_1" xmlns="http://www.w3.org/2000/svg" xmlns:xlink="http://www.w3.org/1999/xlink" x="0px" y="0px"
	 width="100%" viewBox="0 0 512 512" enable-background="new 0 0 512 512" xml:space="preserve">
<path fill="#000000" opacity="1.000000" stroke="none" 
	d="
M284.000000,513.000000 
	C189.356308,513.000000 95.212616,513.000000 1.034460,513.000000 
	C1.034460,342.397949 1.034460,171.795883 1.034460,1.096914 
	C171.560379,1.096914 342.120819,1.096914 512.840637,1.096914 
	C512.840637,171.666550 512.840637,342.333252 512.840637,513.000000 
	C436.795868,513.000000 360.647919,513.000000 284.000000,513.000000 
M69.075043,65.018517 
	C57.011475,64.144569 45.748959,66.282707 36.040844,74.001480 
	C24.711639,83.009148 17.064676,94.202721 17.042233,109.169083 
	C16.933552,181.635010 16.991880,254.101196 17.000074,326.567291 
	C17.000319,328.730103 17.100660,330.892944 16.989685,333.973145 
	C16.990263,356.130737 17.248474,378.292542 16.882700,400.444092 
	C16.699890,411.515167 19.308252,421.482910 26.028364,430.141388 
	C34.136463,440.588287 44.609524,448.246948 58.039841,448.787415 
	C77.660759,449.576935 97.341049,448.890930 117.923775,448.980835 
	C140.281128,448.931549 162.638489,448.882263 185.923523,448.979950 
	C211.281265,448.931061 236.639023,448.882172 262.924377,448.979492 
	C285.282043,448.930847 307.639679,448.882233 330.925110,448.978271 
	C350.282593,448.930176 369.640045,448.882111 389.925385,448.977814 
	C409.385162,448.984314 428.850189,448.722595 448.302734,449.101410 
	C459.360565,449.316742 469.293671,446.724396 478.010956,440.015076 
	C488.507141,431.936554 496.425446,421.492310 496.766052,408.147552 
	C497.516785,378.733459 496.890137,349.284180 496.956207,318.939087 
	C496.967346,250.463776 496.858063,181.988007 497.111237,113.513588 
	C497.152252,102.423683 494.426178,92.531349 487.906311,83.866020 
	C480.059601,73.437263 469.504700,65.844643 456.444916,65.285637 
	C434.000793,64.324944 411.481812,65.113045 388.066711,65.027206 
	C355.044342,65.072433 322.022003,65.117661 288.071960,65.020332 
	C258.712799,65.068565 229.353668,65.116806 199.067047,65.025917 
	C166.711212,65.071571 134.355377,65.117226 101.071808,65.017815 
	C90.713684,65.067589 80.355568,65.117355 69.075043,65.018517 
z"/>
<path fill="#6EBAF7" opacity="1.000000" stroke="none" 
	d="
M388.994232,65.167068 
	C411.481812,65.113045 434.000793,64.324944 456.444916,65.285637 
	C469.504700,65.844643 480.059601,73.437263 487.906311,83.866020 
	C494.426178,92.531349 497.152252,102.423683 497.111237,113.513588 
	C496.858063,181.988007 496.967346,250.463776 496.697876,319.133148 
	C495.073273,317.072113 494.068237,314.468628 492.283051,312.617584 
	C479.136383,298.985931 465.862732,285.476166 452.573853,271.982391 
	C431.788330,250.876404 410.959351,229.813248 390.039917,208.443604 
	C388.896332,206.828094 387.861572,205.500916 387.114258,203.884155 
	C387.934418,201.056244 388.926270,198.518906 388.931702,195.979462 
	C389.024841,152.375488 388.996155,108.771248 388.994232,65.167068 
z"/>
<path fill="#248DE8" opacity="1.000000" stroke="none" 
	d="
M390.148773,208.731949 
	C410.959351,229.813248 431.788330,250.876404 452.573853,271.982391 
	C465.862732,285.476166 479.136383,298.985931 492.283051,312.617584 
	C494.068237,314.468628 495.073273,317.072113 496.632507,319.588257 
	C496.890137,349.284180 497.516785,378.733459 496.766052,408.147552 
	C496.425446,421.492310 488.507141,431.936554 478.010956,440.015076 
	C469.293671,446.724396 459.360565,449.316742 448.302734,449.101410 
	C428.850189,448.722595 409.385162,448.984314 389.462036,448.447937 
	C388.999146,370.957550 388.987610,293.997040 389.048401,217.036606 
	C389.050598,214.268097 389.765839,211.500153 390.148773,208.731949 
z"/>
<path fill="#3DA1F3" opacity="1.000000" stroke="none" 
	d="
M116.996033,448.833893 
	C97.341049,448.890930 77.660759,449.576935 58.039841,448.787415 
	C44.609524,448.246948 34.136463,440.588287 26.028364,430.141388 
	C19.308252,421.482910 16.699890,411.515167 16.882700,400.444092 
	C17.248474,378.292542 16.990263,356.130737 17.294004,333.250580 
	C25.498280,323.494324 33.115589,314.192291 41.371445,305.496460 
	C51.159145,295.187195 61.496944,285.400177 71.864418,275.221802 
	C82.125237,265.465179 92.117966,255.873581 102.457581,246.175583 
	C107.510094,244.286087 112.215714,242.502975 116.940994,241.212463 
	C116.972450,310.747986 116.984245,379.790955 116.996033,448.833893 
z"/>
<path fill="#A3D3FA" opacity="1.000000" stroke="none" 
	d="
M116.921341,240.719879 
	C112.215714,242.502975 107.510094,244.286087 102.430008,245.682465 
	C102.036865,185.251450 102.018204,125.207169 101.999535,65.162880 
	C134.355377,65.117226 166.711212,65.071571 199.532913,65.553696 
	C200.000366,84.729996 200.042160,103.378700 199.957687,122.026825 
	C199.945801,124.651070 199.316376,127.272507 198.772842,129.996521 
	C198.290771,130.214569 198.051743,130.390060 197.468292,130.679428 
	C192.016190,133.064728 186.951630,135.394882 181.567886,137.853668 
	C178.421921,140.526138 175.376434,142.867462 172.803329,145.646225 
	C153.966293,165.988983 158.662125,202.161392 182.105469,216.525253 
	C187.558197,219.055283 192.794785,221.329269 198.408798,223.725754 
	C200.850647,224.257431 202.915085,224.666611 204.984940,225.539673 
	C204.993912,246.145386 205.050110,266.287567 204.913559,286.428467 
	C204.900940,288.290955 203.662262,290.145172 202.708755,291.833038 
	C199.356186,288.750793 196.287750,285.838745 193.047928,282.633545 
	C182.416290,271.889740 172.335022,261.021301 161.396500,251.097778 
	C148.717606,239.595444 133.582535,236.315811 116.921341,240.719879 
z"/>
<path fill="#2890EA" opacity="1.000000" stroke="none" 
	d="
M390.039917,208.443604 
	C389.765839,211.500153 389.050598,214.268097 389.048401,217.036606 
	C388.987610,293.997040 388.999146,370.957550 388.998108,448.376038 
	C369.640045,448.882111 350.282593,448.930176 330.461853,448.447937 
	C330.002319,364.643707 330.006042,281.369812 330.285400,197.876556 
	C339.782349,192.400620 349.573120,190.341721 360.197083,191.704102 
	C370.480164,193.022781 379.088623,197.588089 386.826843,204.173737 
	C387.861572,205.500916 388.896332,206.828094 390.039917,208.443604 
z"/>
<path fill="#2D94EC" opacity="1.000000" stroke="none" 
	d="
M330.009766,198.095886 
	C330.006042,281.369812 330.002319,364.643707 329.997986,448.375610 
	C307.639679,448.882233 285.282043,448.930847 262.461304,448.448425 
	C261.998840,397.221313 261.910736,346.524994 262.085266,295.829590 
	C262.115173,287.141205 263.265472,278.456635 264.046509,269.476410 
	C266.023224,267.039185 267.844208,264.889404 269.681580,262.753754 
	C275.836517,255.599609 281.997345,248.450516 288.432373,241.099854 
	C298.783539,229.651550 308.732269,218.285919 319.007172,207.223206 
	C322.222778,203.761047 326.317474,201.115326 330.009766,198.095886 
z"/>
<path fill="#8DC8F8" opacity="1.000000" stroke="none" 
	d="
M288.155945,241.299500 
	C281.997345,248.450516 275.836517,255.599609 269.681580,262.753754 
	C267.844208,264.889404 266.023224,267.039185 263.765137,269.667999 
	C261.391541,272.210510 259.399323,274.224304 257.512024,276.332062 
	C249.626999,285.138062 241.918396,294.107483 233.857193,302.748352 
	C228.544571,308.442993 220.163055,308.835693 214.488312,303.770599 
	C210.406952,300.127716 206.807388,295.945099 202.992889,292.003235 
	C203.662262,290.145172 204.900940,288.290955 204.913559,286.428467 
	C205.050110,266.287567 204.993912,246.145386 205.430557,225.488205 
	C208.252777,224.874420 210.634796,224.775986 213.408478,224.689301 
	C219.555054,222.874847 225.309967,221.048660 231.399780,219.116302 
	C234.852341,216.843628 238.237503,214.976166 241.045776,212.463882 
	C266.099609,190.050674 260.992706,150.635513 230.814301,134.537231 
	C224.714005,132.640457 218.865433,130.979599 212.563889,129.248627 
	C207.731522,129.417435 203.352158,129.656342 198.972778,129.895248 
	C199.316376,127.272507 199.945801,124.651070 199.957687,122.026825 
	C200.042160,103.378700 200.000366,84.729996 199.996643,65.623260 
	C229.353668,65.116806 258.712799,65.068565 288.536865,65.549942 
	C289.002808,117.190300 289.037415,168.301086 288.967102,219.411728 
	C288.957062,226.708008 288.438934,234.003586 288.155945,241.299500 
z"/>
<path fill="#80C2F8" opacity="1.000000" stroke="none" 
	d="
M288.432373,241.099854 
	C288.438934,234.003586 288.957062,226.708008 288.967102,219.411728 
	C289.037415,168.301086 289.002808,117.190300 289.000732,65.621231 
	C322.022003,65.117661 355.044342,65.072433 388.530457,65.097137 
	C388.996155,108.771248 389.024841,152.375488 388.931702,195.979462 
	C388.926270,198.518906 387.934418,201.056244 387.114258,203.884155 
	C379.088623,197.588089 370.480164,193.022781 360.197083,191.704102 
	C349.573120,190.341721 339.782349,192.400620 330.285400,197.876556 
	C326.317474,201.115326 322.222778,203.761047 319.007172,207.223206 
	C308.732269,218.285919 298.783539,229.651550 288.432373,241.099854 
z"/>
<path fill="#389DF1" opacity="1.000000" stroke="none" 
	d="
M116.941002,241.212463 
	C133.582535,236.315811 148.717606,239.595444 161.396500,251.097778 
	C172.335022,261.021301 182.416290,271.889740 192.657227,282.636810 
	C190.174255,282.185303 187.910614,281.437439 184.995834,280.474396 
	C184.995834,336.971313 184.995834,392.902161 184.995834,448.833008 
	C162.638489,448.882263 140.281128,448.931549 117.459900,448.907349 
	C116.984245,379.790955 116.972450,310.747986 116.941002,241.212463 
z"/>
<path fill="#B4DBFB" opacity="1.000000" stroke="none" 
	d="
M71.596329,275.386810 
	C61.496944,285.400177 51.159145,295.187195 41.371445,305.496460 
	C33.115589,314.192291 25.498280,323.494324 17.376328,332.791870 
	C17.100660,330.892944 17.000319,328.730103 17.000074,326.567291 
	C16.991880,254.101196 16.933552,181.635010 17.042233,109.169083 
	C17.064676,94.202721 24.711639,83.009148 36.040844,74.001480 
	C45.748959,66.282707 57.011475,64.144569 69.536819,65.550934 
	C69.999077,133.512573 69.983536,200.941818 70.067253,268.370941 
	C70.070152,270.710205 71.064232,273.048218 71.596329,275.386810 
z"/>
<path fill="#3399EE" opacity="1.000000" stroke="none" 
	d="
M185.459686,448.906464 
	C184.995834,392.902161 184.995834,336.971313 184.995834,280.474396 
	C187.910614,281.437439 190.174255,282.185303 192.828613,282.929932 
	C196.287750,285.838745 199.356186,288.750793 202.708755,291.833038 
	C206.807388,295.945099 210.406952,300.127716 214.488312,303.770599 
	C220.163055,308.835693 228.544571,308.442993 233.857193,302.748352 
	C241.918396,294.107483 249.626999,285.138062 257.512024,276.332062 
	C259.399323,274.224304 261.391541,272.210510 263.616882,269.961914 
	C263.265472,278.456635 262.115173,287.141205 262.085266,295.829590 
	C261.910736,346.524994 261.998840,397.221313 261.997498,448.375305 
	C236.639023,448.882172 211.281265,448.931061 185.459686,448.906464 
z"/>
<path fill="#AFD8FA" opacity="1.000000" stroke="none" 
	d="
M71.864426,275.221802 
	C71.064232,273.048218 70.070152,270.710205 70.067253,268.370941 
	C69.983536,200.941818 69.999077,133.512573 69.998016,65.625229 
	C80.355568,65.117355 90.713684,65.067589 101.535675,65.090347 
	C102.018204,125.207169 102.036865,185.251450 102.083115,245.788864 
	C92.117966,255.873581 82.125237,265.465179 71.864426,275.221802 
z"/>
<path fill="#3399EE" opacity="1.000000" stroke="none" 
	d="
M198.772842,129.996521 
	C203.352158,129.656342 207.731522,129.417435 212.559952,129.690338 
	C213.011597,161.693970 213.014206,193.185760 213.016815,224.677551 
	C210.634796,224.775986 208.252777,224.874420 205.425140,225.024323 
	C202.915085,224.666611 200.850647,224.257431 198.391190,223.332886 
	C197.670578,220.853851 197.049240,218.888000 197.063843,216.926880 
	C197.278046,188.158966 197.577026,159.391708 197.855835,130.624283 
	C198.051743,130.390060 198.290771,130.214569 198.772842,129.996521 
z"/>
<path fill="#389DF1" opacity="1.000000" stroke="none" 
	d="
M197.468292,130.679428 
	C197.577026,159.391708 197.278046,188.158966 197.063843,216.926880 
	C197.049240,218.888000 197.670578,220.853851 198.013779,223.210388 
	C192.794785,221.329269 187.558197,219.055283 182.134369,216.033417 
	C181.927124,189.432053 181.907089,163.578537 181.887054,137.725037 
	C186.951630,135.394882 192.016190,133.064728 197.468292,130.679428 
z"/>
<path fill="#3DA1F3" opacity="1.000000" stroke="none" 
	d="
M181.567871,137.853668 
	C181.907089,163.578537 181.927124,189.432053 181.918243,215.777374 
	C158.662125,202.161392 153.966293,165.988983 172.803329,145.646225 
	C175.376434,142.867462 178.421921,140.526138 181.567871,137.853668 
z"/>
<path fill="#2D94EC" opacity="1.000000" stroke="none" 
	d="
M213.408478,224.689301 
	C213.014206,193.185760 213.011597,161.693970 213.012939,129.760452 
	C218.865433,130.979599 224.714005,132.640457 230.796631,135.025696 
	C231.042099,163.574203 231.053482,191.398346 231.064880,219.222473 
	C225.309967,221.048660 219.555054,222.874847 213.408478,224.689301 
z"/>
<path fill="#248DE8" opacity="1.000000" stroke="none" 
	d="
M231.399780,219.116302 
	C231.053482,191.398346 231.042099,163.574203 231.048370,135.261612 
	C260.992706,150.635513 266.099609,190.050674 241.045776,212.463882 
	C238.237503,214.976166 234.852341,216.843628 231.399780,219.116302 
z"/>
</svg>